<?xml version="1.0" encoding="iso-8859-1"?>
<!-- Uploaded to: SVG Repo, www.svgrepo.com, Generator: SVG Repo Mixer Tools -->
<svg height="800px" width="800px" version="1.1" id="Layer_1" xmlns="http://www.w3.org/2000/svg" xmlns:xlink="http://www.w3.org/1999/xlink" 
	 viewBox="0 0 512 512" xml:space="preserve">
<g>
	<path style="fill:#ECF0F1;" d="M477.225,291.31c0-121.882-98.807-220.69-220.69-220.69s-220.69,98.807-220.69,220.69
		S134.653,512,256.535,512S477.225,413.193,477.225,291.31"/>
	<path style="fill:#FFFFFF;" d="M256.535,476.69c-102.223,0-185.379-83.156-185.379-185.379s83.156-185.379,185.379-185.379
		s185.379,83.156,185.379,185.379S358.759,476.69,256.535,476.69"/>
	<g>
		<path style="fill:#D1D4D1;" d="M308.984,35.31H204.086c-5.164,0-9.348-4.184-9.348-9.34V9.34c0-5.155,4.184-9.34,9.348-9.34
			h104.898c5.164,0,9.34,4.184,9.34,9.34v16.631C318.324,31.126,314.149,35.31,308.984,35.31"/>
		<path style="fill:#D1D4D1;" d="M462.913,135.757l-35.31-35.31c-7.309-7.309-7.309-19.174,0-26.483l0,0
			c7.309-7.309,19.174-7.309,26.483,0l35.31,35.31c7.309,7.309,7.309,19.174,0,26.483l0,0
			C482.086,143.066,470.222,143.066,462.913,135.757"/>
		<path style="fill:#D1D4D1;" d="M49.087,136.828l35.31-35.31c7.309-7.309,7.309-19.174,0-26.483
			c-7.309-7.309-19.174-7.309-26.483,0l-35.31,35.31c-7.309,7.309-7.309,19.174,0,26.483
			C29.914,144.137,41.778,144.137,49.087,136.828"/>
	</g>
	<g>
		<path style="fill:#ECF0F1;" d="M109.587,126.707l-25.185-25.185l-30.897,30.897l26.474,26.474
			C88.763,147.204,98.703,136.435,109.587,126.707"/>
		<path style="fill:#ECF0F1;" d="M256.535,70.621c8.969,0,17.796,0.6,26.483,1.633V35.31h-52.966v36.943
			C238.739,71.221,247.567,70.621,256.535,70.621"/>
		<path style="fill:#ECF0F1;" d="M433.089,158.895l26.483-26.483l-30.897-30.897l-25.194,25.194
			C414.374,136.437,424.305,147.207,433.089,158.895"/>
	</g>
	<g>
		<path style="fill:#546A79;" d="M256.535,273.655c-9.675,0-17.549,7.874-17.549,17.549s7.874,17.549,17.549,17.549
			c9.675,0,17.549-7.874,17.549-17.549S266.21,273.655,256.535,273.655 M256.535,326.409c-19.412,0-35.204-15.793-35.204-35.204
			c0-19.412,15.793-35.204,35.204-35.204c19.412,0,35.204,15.793,35.204,35.204C291.74,310.616,275.947,326.409,256.535,326.409"/>
		<path style="fill:#546A79;" d="M256.535,273.655c-4.873,0-8.828-3.955-8.828-8.828v-88.276c0-4.873,3.955-8.828,8.828-8.828
			c4.873,0,8.828,3.955,8.828,8.828v88.276C265.363,269.7,261.408,273.655,256.535,273.655"/>
	</g>
	<g>
		<path style="fill:#D1D4D1;" d="M381.018,154.344l-24.611,24.611c-3.443,3.443-3.443,9.031,0,12.482
			c1.73,1.721,3.99,2.586,6.241,2.586c2.26,0,4.52-0.865,6.241-2.586l24.611-24.611
			C389.537,162.466,385.379,158.308,381.018,154.344"/>
		<path style="fill:#D1D4D1;" d="M441.468,282.483h-34.86c-4.882,0-8.828,3.955-8.828,8.828c0,4.873,3.946,8.828,8.828,8.828h34.86
			c0.141-2.948,0.45-5.844,0.45-8.828S441.609,285.431,441.468,282.483"/>
		<path style="fill:#D1D4D1;" d="M393.502,415.793l-24.611-24.611c-3.443-3.443-9.031-3.443-12.482,0
			c-3.443,3.452-3.443,9.039,0,12.482l24.611,24.611C385.38,424.312,389.538,420.154,393.502,415.793"/>
		<path style="fill:#D1D4D1;" d="M256.535,105.931c-2.984,0-5.879,0.309-8.828,0.45v34.86c0,4.873,3.955,8.828,8.828,8.828
			c4.873,0,8.828-3.955,8.828-8.828v-34.86C262.415,106.24,259.519,105.931,256.535,105.931"/>
		<path style="fill:#D1D4D1;" d="M256.535,432.552c-4.873,0-8.828,3.955-8.828,8.828v34.86c2.948,0.141,5.844,0.45,8.828,0.45
			c2.984,0,5.879-0.309,8.828-0.45v-34.86C265.363,436.507,261.408,432.552,256.535,432.552"/>
		<path style="fill:#D1D4D1;" d="M144.178,391.186l-24.611,24.611c3.972,4.352,8.13,8.519,12.482,12.482l24.611-24.611
			c3.452-3.452,3.452-9.031,0-12.482C153.208,387.734,147.629,387.734,144.178,391.186"/>
		<path style="fill:#D1D4D1;" d="M71.604,300.138h34.86c4.882,0,8.828-3.955,8.828-8.828c0-4.873-3.946-8.828-8.828-8.828h-34.86
			c-0.141,2.948-0.45,5.844-0.45,8.828S71.462,297.19,71.604,300.138"/>
		<path style="fill:#D1D4D1;" d="M119.569,166.827l24.611,24.611c1.721,1.721,3.981,2.586,6.241,2.586
			c2.26,0,4.511-0.865,6.241-2.586c3.443-3.452,3.443-9.039,0-12.482l-24.611-24.611
			C127.691,158.309,123.533,162.466,119.569,166.827"/>
	</g>
</g>
</svg>